<svg xmlns="http://www.w3.org/2000/svg" viewBox="0 0 200 200" width="200" height="200">
  <defs>
    <!-- 渐变定义 -->
    <linearGradient id="bgGradient" x1="0%" y1="0%" x2="100%" y2="100%">
      <stop offset="0%" style="stop-color:#0abFA5;stop-opacity:1" />
      <stop offset="100%" style="stop-color:#08d9a3;stop-opacity:1" />
    </linearGradient>
    
    <linearGradient id="shineGradient" x1="0%" y1="0%" x2="100%" y2="100%">
      <stop offset="0%" style="stop-color:#ffffff;stop-opacity:0.4" />
      <stop offset="50%" style="stop-color:#ffffff;stop-opacity:0.1" />
      <stop offset="100%" style="stop-color:#ffffff;stop-opacity:0" />
    </linearGradient>
    
    <!-- 阴影滤镜 -->
    <filter id="softShadow" x="-50%" y="-50%" width="200%" height="200%">
      <feGaussianBlur in="SourceAlpha" stdDeviation="4"/>
      <feOffset dx="0" dy="4" result="offsetblur"/>
      <feComponentTransfer>
        <feFuncA type="linear" slope="0.2"/>
      </feComponentTransfer>
      <feMerge>
        <feMergeNode/>
        <feMergeNode in="SourceGraphic"/>
      </feMerge>
    </filter>
    
    <!-- 内发光 -->
    <filter id="innerGlow">
      <feGaussianBlur in="SourceAlpha" stdDeviation="2"/>
      <feOffset dx="0" dy="0"/>
      <feComposite in2="SourceAlpha" operator="arithmetic" k2="-1" k3="1"/>
      <feColorMatrix type="matrix" values="0 0 0 0 1  0 0 0 0 1  0 0 0 0 1  0 0 0 0.3 0"/>
    </filter>
  </defs>
  
  <!-- 背景圆角矩形 -->
  <rect x="20" y="20" width="160" height="160" rx="40" ry="40" 
        fill="url(#bgGradient)" filter="url(#softShadow)"/>
  
  <!-- 高光效果 -->
  <rect x="20" y="20" width="160" height="80" rx="40" ry="40" 
        fill="url(#shineGradient)"/>
  
  <!-- 小飞 - 抽象翅膀/飞翔元素 -->
  <g transform="translate(100, 100)" fill="#ffffff">
    <!-- 中心圆点（代表"小"）-->
    <circle cx="0" cy="-15" r="12" opacity="0.95"/>
    
    <!-- 左翅膀 -->
    <path d="M -8,-8 
             Q -35,-25 -50,-10 
             Q -35,-5 -25,5 
             Q -35,15 -45,25 
             Q -25,20 -8,8 Z" 
          opacity="0.9"/>
    
    <!-- 右翅膀 -->
    <path d="M 8,-8 
             Q 35,-25 50,-10 
             Q 35,-5 25,5 
             Q 35,15 45,25 
             Q 25,20 8,8 Z" 
          opacity="0.9"/>
    
    <!-- 飞行动态线条 -->
    <path d="M -30,35 Q 0,45 30,35" 
          stroke="#ffffff" stroke-width="3" fill="none" 
          stroke-linecap="round" opacity="0.6"/>
    <path d="M -20,48 Q 0,55 20,48" 
          stroke="#ffffff" stroke-width="2" fill="none" 
          stroke-linecap="round" opacity="0.4"/>
  </g>
  
  <!-- 装饰性小圆点 -->
  <circle cx="45" cy="155" r="4" fill="#ffffff" opacity="0.3"/>
  <circle cx="155" cy="45" r="3" fill="#ffffff" opacity="0.2"/>
</svg>